<svg width="1744" height="386" viewBox="0 0 1744 386" fill="none" xmlns="http://www.w3.org/2000/svg">
<path d="M1682.37 277.229L1667.16 302.573V320.961H1658.33V302.543L1643.14 277.229H1652.7L1662.77 294.952L1672.72 277.229H1682.37Z" fill="white"/>
<path d="M1622.79 277.229H1631.62V320.961H1623.67L1602.89 290.869V320.961H1594.09V277.229H1602.83L1622.79 306.172V277.229Z" fill="white"/>
<path d="M1540.89 320.96L1556.55 277.228H1565.87L1581.5 320.96H1572.7L1569.13 310.828H1553.41L1549.75 320.96H1540.89ZM1555.37 303.116H1567.02L1561.24 285.756L1555.37 303.116Z" fill="white"/>
<path d="M1502.75 320.96V277.228H1518.84C1522.02 277.228 1524.87 277.782 1527.39 278.891C1529.91 279.98 1531.9 281.593 1533.35 283.73C1534.82 285.867 1535.56 288.478 1535.56 291.563C1535.56 294.466 1534.92 296.946 1533.62 299.003C1532.33 301.06 1530.52 302.632 1528.18 303.721C1525.86 304.81 1523.13 305.354 1519.99 305.354H1511.64V320.96H1502.75ZM1511.55 298.519H1519.74C1521.96 298.519 1523.78 297.813 1525.19 296.402C1526.6 294.97 1527.3 293.206 1527.3 291.109C1527.3 288.932 1526.56 287.208 1525.07 285.938C1523.57 284.647 1521.76 284.002 1519.62 284.002H1511.55V298.519Z" fill="white"/>
<path d="M1441.17 320.961V277.229H1453.99L1464 308.41L1474.1 277.229H1486.9V320.961H1477.97V287.512L1467.45 320.961H1460.52L1450.06 287.663V320.961H1441.17Z" fill="white"/>
<path d="M1407.29 321.567C1403.16 321.567 1399.58 320.67 1396.55 318.875C1393.55 317.061 1391.22 314.49 1389.57 311.163C1387.93 307.816 1387.12 303.824 1387.12 299.187C1387.12 294.529 1387.94 290.517 1389.6 287.15C1391.27 283.783 1393.62 281.192 1396.64 279.377C1399.67 277.542 1403.22 276.625 1407.29 276.625C1411.34 276.625 1414.87 277.532 1417.87 279.347C1420.88 281.162 1423.2 283.752 1424.83 287.12C1426.48 290.487 1427.31 294.509 1427.31 299.187C1427.31 303.804 1426.49 307.786 1424.86 311.133C1423.25 314.48 1420.94 317.061 1417.94 318.875C1414.93 320.67 1411.38 321.567 1407.29 321.567ZM1407.29 314.309C1409.43 314.309 1411.27 313.805 1412.82 312.796C1414.4 311.768 1415.61 310.155 1416.45 307.957C1417.3 305.74 1417.72 302.856 1417.72 299.308C1417.72 295.658 1417.29 292.705 1416.42 290.446C1415.58 288.188 1414.37 286.535 1412.79 285.486C1411.24 284.418 1409.41 283.883 1407.29 283.883C1405.17 283.883 1403.33 284.418 1401.76 285.486C1400.18 286.535 1398.96 288.198 1398.1 290.477C1397.23 292.735 1396.8 295.679 1396.8 299.308C1396.8 302.877 1397.23 305.76 1398.1 307.957C1398.96 310.155 1400.18 311.768 1401.76 312.796C1403.33 313.805 1405.17 314.309 1407.29 314.309Z" fill="white"/>
<path d="M1357.46 276.625C1360.74 276.625 1363.67 277.29 1366.23 278.621C1368.81 279.932 1370.89 281.726 1372.46 284.004C1374.05 286.283 1374.99 288.854 1375.27 291.717H1366.02C1365.73 290.204 1365.22 288.864 1364.47 287.694C1363.73 286.505 1362.75 285.577 1361.54 284.912C1360.33 284.226 1358.88 283.883 1357.19 283.883C1355.15 283.883 1353.4 284.377 1351.92 285.365C1350.45 286.353 1349.32 287.946 1348.54 290.144C1347.75 292.342 1347.36 295.245 1347.36 298.854C1347.36 304.298 1348.22 308.24 1349.96 310.679C1351.71 313.099 1354.12 314.309 1357.19 314.309C1358.88 314.309 1360.33 313.926 1361.54 313.159C1362.75 312.373 1363.73 311.345 1364.47 310.074C1365.22 308.784 1365.73 307.373 1366.02 305.84H1375.27C1375.01 307.917 1374.51 309.903 1373.76 311.798C1373.01 313.673 1371.95 315.347 1370.58 316.819C1369.21 318.291 1367.45 319.45 1365.29 320.297C1363.13 321.144 1360.52 321.567 1357.46 321.567C1353.39 321.567 1349.87 320.619 1346.9 318.724C1343.94 316.829 1341.65 314.167 1340.04 310.74C1338.44 307.312 1337.65 303.31 1337.65 298.733C1337.65 294.136 1338.44 290.194 1340.04 286.908C1341.63 283.601 1343.91 281.061 1346.87 279.286C1349.84 277.512 1353.37 276.625 1357.46 276.625Z" fill="white"/>
<path d="M1310.7 277.228L1295.49 302.572V320.96H1286.66V302.541L1271.48 277.228H1281.03L1291.1 294.95L1301.05 277.228H1310.7Z" fill="white"/>
<path d="M1226.37 285.092V277.229H1261.36V285.092H1248.45V320.961H1239.59V285.092H1226.37Z" fill="white"/>
<path d="M1205.45 277.229H1214.25V320.961H1205.45V277.229Z" fill="white"/>
<path d="M1191.23 320.96H1182.07L1174.96 304.114H1166.1V320.96H1157.3V277.228H1175.75C1179.23 277.228 1182.09 277.782 1184.3 278.891C1186.52 280 1188.16 281.542 1189.2 283.518C1190.25 285.474 1190.78 287.732 1190.78 290.293C1190.78 292.591 1190.41 294.537 1189.69 296.13C1188.98 297.703 1188.04 299.013 1186.88 300.062C1185.73 301.11 1184.47 301.967 1183.09 302.632L1191.23 320.96ZM1174.17 297.309C1176.53 297.309 1178.4 296.674 1179.77 295.404C1181.16 294.134 1181.85 292.501 1181.85 290.505C1181.85 288.488 1181.19 286.895 1179.86 285.726C1178.53 284.557 1176.84 283.972 1174.81 283.972H1166.1V297.309H1174.17Z" fill="white"/>
<path d="M1142.46 304.297C1142.46 307.825 1141.89 310.89 1140.74 313.491C1139.59 316.072 1137.72 318.068 1135.14 319.479C1132.58 320.87 1129.18 321.566 1124.95 321.566C1120.7 321.566 1117.29 320.86 1114.73 319.449C1112.17 318.017 1110.31 315.991 1109.16 313.37C1108.03 310.749 1107.47 307.624 1107.47 303.994V277.229H1116.45V304.66C1116.45 307.926 1117.24 310.315 1118.81 311.828C1120.38 313.32 1122.43 314.066 1124.95 314.066C1126.62 314.066 1128.1 313.743 1129.4 313.098C1130.69 312.432 1131.69 311.414 1132.42 310.043C1133.17 308.652 1133.54 306.857 1133.54 304.66V277.229H1142.46V304.297Z" fill="white"/>
<path d="M1075.83 276.625C1079.11 276.625 1082.04 277.29 1084.6 278.621C1087.18 279.932 1089.25 281.726 1090.83 284.004C1092.42 286.283 1093.36 288.854 1093.64 291.717H1084.38C1084.1 290.204 1083.59 288.864 1082.84 287.694C1082.1 286.505 1081.12 285.577 1079.91 284.912C1078.7 284.226 1077.25 283.883 1075.55 283.883C1073.52 283.883 1071.76 284.377 1070.29 285.365C1068.82 286.353 1067.69 287.946 1066.9 290.144C1066.12 292.342 1065.72 295.245 1065.72 298.854C1065.72 304.298 1066.59 308.24 1068.32 310.679C1070.08 313.099 1072.49 314.309 1075.55 314.309C1077.25 314.309 1078.7 313.926 1079.91 313.159C1081.12 312.373 1082.1 311.345 1082.84 310.074C1083.59 308.784 1084.1 307.373 1084.38 305.84H1093.64C1093.38 307.917 1092.87 309.903 1092.13 311.798C1091.38 313.673 1090.32 315.347 1088.95 316.819C1087.58 318.291 1085.82 319.45 1083.66 320.297C1081.5 321.144 1078.89 321.567 1075.83 321.567C1071.75 321.567 1068.23 320.619 1065.27 318.724C1062.31 316.829 1060.02 314.167 1058.4 310.74C1056.81 307.312 1056.02 303.31 1056.02 298.733C1056.02 294.136 1056.81 290.194 1058.4 286.908C1060 283.601 1062.28 281.061 1065.24 279.286C1068.2 277.512 1071.73 276.625 1075.83 276.625Z" fill="white"/>
<path d="M1013.81 320.961V277.229H1043.84L1043.81 284.669H1022.67V295.284H1041.03V302.573H1022.61V313.43L1044.15 313.461V320.961H1013.81Z" fill="white"/>
<path d="M982.309 321.568C980.152 321.568 978.035 321.295 975.958 320.751C973.881 320.207 971.986 319.39 970.272 318.301C968.558 317.213 967.137 315.852 966.008 314.218C964.899 312.585 964.234 310.67 964.012 308.472H973.055C973.357 309.803 973.932 310.922 974.778 311.829C975.625 312.736 976.694 313.432 977.984 313.916C979.275 314.4 980.706 314.642 982.279 314.642C983.892 314.642 985.364 314.44 986.694 314.037C988.025 313.634 989.094 313.029 989.9 312.222C990.707 311.396 991.11 310.367 991.11 309.137C991.11 308.029 990.777 307.121 990.112 306.416C989.467 305.71 988.59 305.135 987.481 304.692C986.372 304.248 985.112 303.885 983.7 303.603L976.139 302.06C972.833 301.435 970.212 300.125 968.276 298.129C966.34 296.113 965.342 293.431 965.282 290.084C965.262 287.342 965.988 284.973 967.459 282.977C968.951 280.96 970.968 279.408 973.508 278.319C976.069 277.23 978.932 276.686 982.097 276.686C985.868 276.686 989.033 277.281 991.594 278.47C994.175 279.64 996.13 281.233 997.461 283.249C998.812 285.245 999.508 287.473 999.548 289.933H990.687C990.525 288.4 990.062 287.181 989.295 286.273C988.529 285.366 987.541 284.711 986.332 284.307C985.142 283.904 983.781 283.703 982.249 283.703C981.079 283.703 980.011 283.834 979.043 284.096C978.095 284.358 977.289 284.731 976.623 285.215C975.958 285.678 975.444 286.233 975.081 286.878C974.718 287.523 974.537 288.249 974.537 289.056C974.537 290.326 974.96 291.354 975.807 292.141C976.654 292.927 978.236 293.572 980.555 294.076L988.055 295.619C990.737 296.143 992.864 296.919 994.437 297.947C996.03 298.976 997.219 300.135 998.006 301.425C998.812 302.716 999.336 304.036 999.578 305.387C999.84 306.718 999.971 307.948 999.971 309.077C999.971 311.436 999.225 313.563 997.733 315.458C996.262 317.334 994.205 318.826 991.564 319.934C988.922 321.023 985.838 321.568 982.309 321.568Z" fill="white"/>
<path d="M936.937 277.229L921.724 302.573V320.961H912.893V302.543L897.711 277.229H907.268L917.339 294.952L927.289 277.229H936.937Z" fill="white"/>
<path d="M852.621 285.092V277.229H887.613V285.092H874.699V320.961H865.838V285.092H852.621Z" fill="white"/>
<path d="M831.695 277.229H840.496V320.961H831.695V277.229Z" fill="white"/>
<path d="M784.609 285.092V277.229H819.601V285.092H806.687V320.961H797.826V285.092H784.609Z" fill="white"/>
<path d="M763.682 277.229H772.513V320.961H764.559L743.781 290.869V320.961H734.98V277.229H743.721L763.682 306.172V277.229Z" fill="white"/>
<path d="M690.223 320.96V277.228H720.255L720.224 284.667H699.084V295.283H717.442V302.572H699.024V313.429L720.557 313.459V320.96H690.223Z" fill="white"/>
<path d="M640.621 277.229C640.843 277.229 641.458 277.229 642.466 277.229C643.494 277.229 644.694 277.229 646.065 277.229C647.456 277.229 648.837 277.239 650.208 277.259C651.6 277.259 652.759 277.269 653.686 277.289C658.989 277.41 663.314 278.358 666.661 280.132C670.008 281.906 672.458 284.386 674.01 287.572C675.583 290.758 676.369 294.528 676.369 298.883C676.369 303.42 675.542 307.341 673.889 310.648C672.236 313.934 669.705 316.475 666.298 318.269C662.911 320.064 658.606 320.961 653.384 320.961H640.621V277.229ZM649.513 284.366V313.824H653.565C656.066 313.824 658.334 313.34 660.37 312.372C662.427 311.404 664.07 309.821 665.3 307.624C666.53 305.426 667.145 302.492 667.145 298.823C667.145 295.415 666.6 292.653 665.512 290.536C664.423 288.399 662.87 286.836 660.854 285.848C658.838 284.86 656.449 284.366 653.686 284.366H649.513Z" fill="white"/>
<path d="M615.992 277.229H624.793V320.961H615.992V277.229Z" fill="white"/>
<path d="M552.664 320.961V277.229H582.696L582.666 284.669H561.525V295.284H579.883V302.573H561.465V313.43L582.998 313.461V320.961H552.664Z" fill="white"/>
<path d="M527.996 302.18H508.852V320.961H500.051V277.229H508.852V294.77H527.996V277.229H536.827V320.961H527.996V302.18Z" fill="white"/>
<path d="M452.992 285.092V277.229H487.984V285.092H475.07V320.961H466.209V285.092H452.992Z" fill="white"/>
<path d="M336.987 100.925L330.497 97.2163L167.31 2.92725L2.33984 98.2861V288.148L4.62223 289.432L167.31 383.079L325.148 292.213L334.562 286.793V181.021L325.148 186.441L249.831 229.806V151.065L336.845 100.996L336.987 100.925ZM172.374 111.481L240.559 150.994V229.806L172.374 190.364V111.481ZM162.46 16.6212V100.64L89.5677 142.863L16.6044 100.925L162.46 16.6212ZM162.46 111.481V190.364L94.2753 229.806V150.994L162.46 111.481ZM11.8973 109.056L84.8606 150.994V235.226L11.8973 277.449V109.056ZM16.8186 285.509L89.5677 243.357L162.603 285.438L162.745 369.456L16.8186 285.509ZM167.381 277.235H167.31L98.911 237.936L167.096 198.495L167.381 198.637L167.666 198.495L235.851 237.936L228.006 242.43L167.453 277.307H167.381V277.235ZM254.609 237.936L325.219 197.211V281.229L317.944 285.438L172.017 369.385L172.16 285.366L254.609 237.865V237.936ZM245.266 142.863L172.374 100.64V16.6212L318.229 100.925L245.266 142.863Z" fill="white"/>
<path d="M167.395 385.929L0 289.571V96.7853L167.395 0L341.994 100.922L252.484 152.489V225.523L337.215 176.738V288.288L167.395 386V385.929ZM4.9927 286.647L5.99132 287.218L167.467 380.152L332.294 285.292V185.297L247.562 234.082V149.564L332.08 100.922L167.467 5.77715L4.9927 99.7095V286.647ZM169.606 373.804L169.749 284.008L327.801 192.929V282.724L169.606 373.732V373.804ZM174.741 286.861L174.599 365.102L322.808 279.8V201.487L174.741 286.79V286.861ZM165.256 373.804L11.8399 285.506L89.5817 240.501L165.113 284.008L165.256 373.804ZM21.8248 285.506L160.263 365.174L160.12 286.932L89.5817 246.35L21.8248 285.577V285.506ZM9.41469 281.797V104.773L87.3707 149.636V236.721L9.41469 281.869V281.797ZM14.4074 113.404V273.167L82.3784 233.797V152.489L14.4074 113.404ZM167.467 280.157H167.395H167.324L93.9327 237.934L167.11 195.639L240.858 237.934L167.467 280.157ZM167.324 274.38H167.395L230.872 237.934L167.324 201.274L103.918 237.934L167.324 274.451V274.38ZM91.7927 234.153V149.564L164.97 107.198V191.859L91.7927 234.153ZM96.714 152.417V225.452L159.906 188.935V115.828L96.714 152.417ZM243.069 234.153L169.891 191.859V107.198L243.069 149.564V234.153ZM174.884 188.935L238.076 225.452V152.417L174.884 115.828V188.935ZM245.28 145.784L169.891 102.134V12.3388L323.236 100.993L245.28 145.856V145.784ZM174.884 99.2103L245.28 140.007L313.251 100.922L174.884 20.969V99.2103ZM89.5817 145.784L11.6257 100.922L164.97 12.2676V102.063L89.5817 145.713V145.784ZM21.6111 100.922L89.5817 140.007L159.978 99.2103V20.969L21.6111 100.922Z" fill="white"/>
<path d="M1266.24 72.8098H1295.78L1358.21 219.547H1324.73L1311.39 186.874H1249.76L1236.42 219.547H1203.74L1266.17 72.8098H1266.24ZM1299.94 158.577L1280.61 111.317L1261.28 158.577H1300.01H1299.94Z" fill="white"/>
<path d="M1384.91 73.9021H1451.5C1470.02 73.9021 1484.39 79.0802 1493.94 88.7071C1502.04 96.8024 1506.41 108.253 1506.41 122.037V122.474C1506.41 145.958 1493.72 160.763 1475.2 167.618L1510.79 219.618H1473.3L1442.09 173.015H1416.93V219.618H1384.91V73.9751V73.9021ZM1449.38 144.645C1464.99 144.645 1473.96 136.331 1473.96 124.079V123.641C1473.96 109.93 1464.4 102.856 1448.8 102.856H1416.93V144.718H1449.38V144.645Z" fill="white"/>
<path d="M1545.8 73.9021H1577.82V137.571L1636.89 73.9021H1675.62L1616.32 135.675L1678.32 219.545H1639.81L1594.66 157.554L1577.82 175.057V219.618H1545.8V73.9751V73.9021Z" fill="white"/>
<path d="M1726.51 84.6944C1726.51 86.6636 1725.13 88.0492 1722.5 88.0492H1717.32V81.1937H1722.36C1724.91 81.1937 1726.44 82.3606 1726.44 84.6214M1731.76 84.4027C1731.76 79.5163 1728.19 76.672 1722.65 76.672H1712.29V100.01H1717.47V92.4981H1721.55L1726.51 100.01H1732.49L1726.8 91.6227C1729.79 90.5288 1731.84 88.195 1731.84 84.3296M1740.66 88.9243C1740.66 99.7181 1732.27 108.47 1721.26 108.47C1710.25 108.47 1701.94 99.7911 1701.94 88.9973C1701.94 78.2036 1710.25 69.4518 1721.33 69.4518C1732.42 69.4518 1740.66 78.1307 1740.66 88.8516M1743.21 88.9243C1743.21 76.9637 1733.66 67.0452 1721.33 67.0452C1709.01 67.0452 1699.38 77.0367 1699.38 88.9973C1699.38 100.958 1708.94 110.877 1721.26 110.877C1733.59 110.877 1743.21 100.885 1743.21 88.9243Z" fill="white"/>
<path d="M527.456 219.82C485.512 219.82 453.855 187.516 453.855 144.687C453.855 101.857 485.943 68.6819 528.536 68.6819C556.594 68.6819 572.207 79.2078 583.574 89.8063L570.048 105.486C556.379 93.2908 543.428 87.8464 528.248 87.8464C498.534 87.8464 476.159 111.947 476.159 143.888C476.159 175.829 499.038 200.801 528.248 200.801C546.738 200.801 558.897 193.396 571.2 182.145L584.51 195.792C567.53 212.924 550.911 219.966 527.312 219.966L527.456 219.82Z" fill="white"/>
<path d="M658.705 219.967V161.814L599.984 72.1218H625.403L669.83 142.332L714.773 72.1218H739.234L680.734 160.491L680.513 219.967H658.705Z" fill="white"/>
<path d="M766.809 219.967V72.1218H833.647C850.468 72.1218 863.791 76.533 872.277 84.9141C878.752 91.3102 881.878 99.0295 881.878 108.44C881.878 123.143 875.328 133.436 861.186 140.641L855.53 143.508L861.559 145.493C881.58 152.257 890.512 162.917 890.512 180.194C890.512 205.117 870.044 219.967 835.806 219.967H766.734H766.809ZM788.17 201.514H836.103C856.869 201.514 868.704 192.912 868.704 177.841C868.704 162.77 856.423 154.168 834.094 154.168H788.17V201.514ZM788.17 136.671H828.139C848.459 136.671 860.07 128.143 860.07 113.218C860.07 99.1029 848.831 90.6485 830.075 90.6485H788.17V136.744V136.671Z" fill="white"/>
<path d="M921.465 219.967V72.1218H1025.27V90.869H942.128V136.009H1015.82V154.757H942.128V201.294H1026.33V219.967H921.465Z" fill="white"/>
<path d="M1160.77 219.967L1125.26 166.593H1089.62V219.967H1069.3V72.1218H1131.16C1148.08 72.1218 1161.88 77.121 1171.1 86.6784C1178.45 94.6919 1182.33 105.426 1182.33 117.85C1182.33 140.053 1170.75 155.712 1149.67 162.108L1146.2 163.138L1184.48 219.967H1160.77ZM1089.62 148.066H1129.28C1148.91 148.066 1161.53 136.965 1161.53 119.762C1161.53 101.676 1149.67 91.2365 1129.08 91.2365H1089.62V148.066Z" fill="white"/>
</svg>
