<?xml version="1.0" encoding="UTF-8"?>
<svg id="Layer_1" data-name="Layer 1" xmlns="http://www.w3.org/2000/svg" viewBox="0 0 1700.58 215.75">
  <defs>
    <style>
      .cls-1 {
        fill: #fa582d;
      }

      .cls-2 {
        fill: #265bff;
      }

      .cls-3 {
        fill: #fff;
      }
    </style>
  </defs>
  <rect class="cls-3" x="998.62" y="12" width="2.5" height="191.75"/>
  <g id="Parent_Logo_RGB" data-name="Parent Logo RGB">
    <g>
      <path class="cls-3" d="M404.04,53.91c-12.04,0-24.55,3.28-40.04,11.57l8.6,21.27c13.45-7.51,24.55-10.79,32.69-10.79,9.23,0,13.29,3.44,13.29,7.98v.31c0,3.13-2.5,4.85-8.6,5.47l-10.63,1.09c-26.59,2.81-37.54,14.39-37.54,30.34v1.09c0,15.17,12.51,27.06,30.19,27.06,11.63,0,21.75-4.91,27.89-13.59l1.98,12.02h24.09v-54.58c0-25.81-14.86-39.26-41.92-39.26M401.69,128.51c-8.92,0-13.14-3.44-13.14-8.76v-.31c0-4.69,2.66-8.13,12.36-9.54l4.22-.63c6.17-.86,9.97-2,13.45-4.11v6.92c0,10.48-6.57,16.42-16.89,16.42"/>
      <polygon class="cls-1" points="177.57 54.53 146.76 23.72 115.95 54.53 131.28 69.86 54.02 147.12 84.83 177.93 115.64 147.12 100.31 131.79 177.57 54.53"/>
      <rect class="cls-1" x="7.28" y="55.97" width="109.26" height="43.57" transform="translate(-36.85 66.55) rotate(-45)"/>
      <rect class="cls-1" x="115.04" y="102.11" width="109.26" height="43.57" transform="translate(-37.91 156.27) rotate(-45)"/>
      <rect class="cls-3" x="461.59" y="22.63" width="27.37" height="125.12"/>
      <path class="cls-3" d="M315.83,53.91c-12.44,0-22.43,5.51-27.94,14.13l-2.09-12.56h-24.09v123.56h27.37v-42.83c5.21,8.03,15.07,13.11,26.74,13.11,21.9,0,39.73-19.39,39.73-46.14v-3.13c0-26.74-17.83-46.14-39.73-46.14M327.4,102.39c0,14.08-7.35,24.24-19.55,24.24s-19.55-10.17-19.55-24.24v-1.56c0-14.08,7.35-24.24,19.55-24.24s19.55,10.17,19.55,24.24v1.56Z"/>
      <path class="cls-3" d="M858.22,53.91c-28,0-47.7,19.39-47.7,46.14v3.13c0,26.74,19.71,46.14,47.7,46.14s47.7-19.39,47.7-46.14v-3.13c0-26.74-19.71-46.14-47.7-46.14M877.77,102.39c0,14.08-7.35,24.24-19.55,24.24s-19.55-10.17-19.55-24.24v-1.56c0-14.08,7.35-24.24,19.55-24.24s19.55,10.17,19.55,24.24v1.56Z"/>
      <path class="cls-3" d="M931.73,59.54v-.47c0-2.66-2.03-4.54-5.63-4.54h-6.25v14.39h2.97v-4.85h3.3l2.48,4.85h3.29l-3.06-5.69c1.86-.56,2.9-1.95,2.9-3.69M922.82,57.19h3.28c1.88,0,2.66.63,2.66,2.03v.16c0,1.25-.78,2.03-2.66,2.03h-3.28v-4.22Z"/>
      <path class="cls-3" d="M925.47,46.87c-8.45,0-14.86,6.41-14.86,14.86s6.41,14.86,14.86,14.86,14.86-6.41,14.86-14.86-6.41-14.86-14.86-14.86M925.47,74.55c-7.35,0-12.67-5.32-12.67-12.82s5.32-12.82,12.67-12.82,12.67,5.32,12.67,12.82-5.32,12.82-12.67,12.82"/>
      <rect class="cls-3" x="702.6" y="22.63" width="27.37" height="125.12"/>
      <path class="cls-3" d="M783.93,126.63c-7.98,0-10.95-3.91-10.95-12.36v-37.69h32.22v-21.11h-32.22v-21.11l-27.37,4.07v78.51c0,21.43,10.95,32.38,32.84,32.38,9.7,0,21.11-2.97,30.5-8.29l-7.82-19.39c-5.47,2.97-13.14,5-17.2,5"/>
      <path class="cls-3" d="M645.05,53.91c-12.04,0-24.55,3.28-40.04,11.57l8.6,21.27c13.45-7.51,24.55-10.79,32.69-10.79,9.23,0,13.29,3.44,13.29,7.98v.31c0,3.13-2.5,4.85-8.6,5.47l-10.63,1.09c-26.59,2.81-37.54,14.39-37.54,30.34v1.09c0,15.17,12.51,27.06,30.19,27.06,11.63,0,21.75-4.91,27.89-13.58l1.98,12.02h24.09v-54.58c0-25.81-14.86-39.26-41.92-39.26M642.7,128.51c-8.92,0-13.14-3.44-13.14-8.76v-.31c0-4.69,2.66-8.13,12.36-9.54l4.22-.63c6.17-.86,9.97-2,13.45-4.11v6.92c0,10.48-6.57,16.42-16.89,16.42"/>
      <path class="cls-3" d="M548.86,53.91c-28,0-47.7,19.39-47.7,46.14v3.13c0,26.74,19.71,46.14,47.7,46.14s47.7-19.39,47.7-46.14v-3.13c0-26.74-19.71-46.14-47.7-46.14M568.41,102.39c0,14.08-7.35,24.24-19.55,24.24s-19.55-10.17-19.55-24.24v-1.56c0-14.08,7.35-24.24,19.55-24.24s19.55,10.17,19.55,24.24v1.56Z"/>
      <polygon class="cls-3" points="660.89 169.93 667.91 169.93 677.59 182.7 677.68 182.7 677.68 169.93 684.12 169.93 684.12 192.45 677.33 192.45 667.42 179.36 667.33 179.36 667.33 192.45 660.89 192.45 660.89 169.93"/>
      <polygon class="cls-3" points="692.67 169.93 712.35 169.93 712.61 175.4 699.39 175.4 699.39 178.49 709.78 178.49 709.78 183.47 699.39 183.47 699.39 186.98 713 186.98 712.74 192.45 692.67 192.45 692.67 169.93"/>
      <polygon class="cls-3" points="726.7 175.72 718.82 175.72 719.07 169.93 741.11 169.93 741.36 175.72 733.48 175.72 733.48 192.45 726.7 192.45 726.7 175.72"/>
      <polygon class="cls-3" points="746.8 169.93 754 169.93 757.67 185.56 758.02 185.56 762.78 169.93 769.38 169.93 774.04 185.56 774.4 185.56 778 169.93 784.88 169.93 778.96 192.45 770.12 192.45 766 178.87 765.81 178.87 761.63 192.45 752.75 192.45 746.8 169.93"/>
      <path class="cls-3" d="M789.83,181.19c0-7.33,4.99-11.93,12.86-11.93s12.87,4.6,12.87,11.93-4.99,11.93-12.87,11.93-12.86-4.6-12.86-11.93M808.84,181.19c0-3.89-2.25-6.21-6.14-6.21s-6.14,2.32-6.14,6.21,2.25,6.21,6.11,6.21,6.18-2.32,6.18-6.21"/>
      <path class="cls-3" d="M822.86,169.93h13.12c5.98,0,8.91,2.83,8.91,8.07,0,3.6-1.48,6.05-4.37,7.21l5.34,7.24h-7.65l-4.15-5.92h-4.44v5.92h-6.75v-22.52ZM835.11,181.25c2.25,0,3.06-1.25,3.06-2.96s-.8-2.93-3.06-2.93h-5.5v5.89h5.5Z"/>
      <polygon class="cls-3" points="853.67 169.93 860.43 169.93 860.43 178.23 863.19 178.23 869.79 169.93 877.38 169.93 877.41 169.96 868.79 180.74 877.89 192.41 877.86 192.45 869.98 192.45 863.16 183.8 860.43 183.8 860.43 192.45 853.67 192.45 853.67 169.93"/>
      <path class="cls-3" d="M883.07,190.97v-6.18h.03c3.76,1.9,7.43,2.83,10.61,2.83,2.41,0,3.63-.58,3.63-1.71s-.8-1.42-5.63-2.19c-5.27-.83-8.78-2.41-8.78-6.95,0-4.21,3.7-7.46,10.94-7.46,2.89,0,5.92.61,8.72,1.8v6.11l-.03.03c-2.67-1.54-6.27-2.51-9.17-2.51-2.57,0-3.6.61-3.6,1.64,0,1.32,1.58,1.45,5.53,2.12,5.27.9,8.78,2.38,8.78,7.14,0,3.7-2.77,7.4-10.71,7.4-3.92,0-7.04-.8-10.32-2.09"/>
    </g>
  </g>
  <g>
    <polyline class="cls-2" points="1158.86 143.72 1158.86 173.64 1095.45 137.03 1095.45 63.81 1158.86 27.2 1222.27 63.81 1222.27 63.82 1196.36 78.78 1196.36 78.77 1158.86 57.11 1121.36 78.77 1121.36 122.07 1158.86 143.72"/>
    <polygon class="cls-2" points="1158.86 143.72 1196.36 122.07 1196.36 78.77 1196.36 78.78 1158.66 100.42 1158.86 143.72"/>
  </g>
  <g>
    <path class="cls-3" d="M1661.55,66.34h-5.55l.16-3.61h14.89l.13,3.61h-5.55v11.99h-4.08v-11.99Z"/>
    <path class="cls-3" d="M1674.07,62.73h4.75l4.61,8.05,4.5-8.05h4.77v15.61h-4.01v-9.67h-.07l-5.15,8.78h-.27l-5.08-8.78h-.09v9.67h-3.97v-15.61Z"/>
  </g>
  <g>
    <path class="cls-3" d="M1281.13,63.47v73.9h-19.42V63.47h19.42Z"/>
    <path class="cls-3" d="M1349.14,63.47c30.96,0,45.71,14.87,45.71,36.62s-15.42,37.28-45.71,37.28h-36.84V63.47h36.84ZM1331.72,122.05h16.87c17.42,0,26.85-8.21,26.85-21.64s-9.32-21.64-26.85-21.64h-16.87v43.27Z"/>
    <path class="cls-3" d="M1441.13,63.47v73.9h-19.42V63.47h19.42Z"/>
    <path class="cls-3" d="M1491.61,137.37h-19.31V63.47h48.38c20.31,0,31.07,8.99,31.07,24.19,0,11.98-7.88,19.86-19.42,22.97l23.08,26.74h-22.08l-21.41-25.3h-20.31v25.3ZM1491.61,97.75h24.41c10.76,0,16.2-3.22,16.2-9.76s-4.44-9.65-15.31-9.65h-25.3v19.42Z"/>
    <path class="cls-3" d="M1639.73,124.16h-42.39l-6.55,13.2h-20.08l37.61-74.34h21.08l37.73,74.34h-20.86l-6.55-13.2ZM1604.01,110.63h29.07l-14.42-29.4h-.22l-14.43,29.4Z"/>
  </g>
</svg>