<?xml version="1.0" encoding="UTF-8"?>
<svg id="Layer_1" data-name="Layer 1" xmlns="http://www.w3.org/2000/svg" viewBox="0 0 1700.58 212.8">
  <defs>
    <style>
      .cls-1 {
        fill: #fa582d;
      }

      .cls-2 {
        fill: #265bff;
      }

      .cls-3 {
        fill: #141414;
      }
    </style>
  </defs>
  <g>
    <polyline class="cls-2" points="1158.86 143.72 1158.86 173.64 1095.45 137.03 1095.45 63.81 1158.86 27.2 1222.27 63.81 1222.27 63.82 1196.36 78.78 1196.36 78.77 1158.86 57.11 1121.36 78.77 1121.36 122.07 1158.86 143.72"/>
    <polygon class="cls-2" points="1158.86 143.72 1196.36 122.07 1196.36 78.77 1196.36 78.78 1158.66 100.42 1158.86 143.72"/>
  </g>
  <rect class="cls-3" x="999.77" y="10.52" width="2.5" height="191.75"/>
  <g id="Parent_Logo_RGB" data-name="Parent Logo RGB">
    <g>
      <path class="cls-3" d="M405.18,52.43c-12.04,0-24.55,3.28-40.04,11.57l8.6,21.27c13.45-7.51,24.55-10.79,32.69-10.79,9.23,0,13.29,3.44,13.29,7.98v.31c0,3.13-2.5,4.85-8.6,5.47l-10.63,1.09c-26.59,2.81-37.54,14.39-37.54,30.34v1.09c0,15.17,12.51,27.06,30.19,27.06,11.63,0,21.75-4.91,27.89-13.59l1.98,12.02h24.09v-54.58c0-25.81-14.86-39.26-41.92-39.26M402.84,127.04c-8.92,0-13.14-3.44-13.14-8.76v-.31c0-4.69,2.66-8.13,12.36-9.54l4.22-.63c6.17-.86,9.97-2,13.45-4.11v6.92c0,10.48-6.57,16.42-16.89,16.42"/>
      <polygon class="cls-1" points="178.72 53.06 147.91 22.25 117.1 53.06 132.42 68.39 55.16 145.65 85.97 176.46 116.78 145.65 101.46 130.32 178.72 53.06"/>
      <rect class="cls-1" x="8.43" y="54.5" width="109.26" height="43.57" transform="translate(-35.47 66.93) rotate(-45)"/>
      <rect class="cls-1" x="116.19" y="100.64" width="109.26" height="43.57" transform="translate(-36.53 156.65) rotate(-45)"/>
      <rect class="cls-3" x="462.74" y="21.15" width="27.37" height="125.12"/>
      <path class="cls-3" d="M316.98,52.43c-12.44,0-22.43,5.51-27.94,14.13l-2.09-12.56h-24.09v123.56h27.37v-42.83c5.21,8.03,15.07,13.11,26.74,13.11,21.9,0,39.73-19.39,39.73-46.14v-3.13c0-26.74-17.83-46.14-39.73-46.14M328.55,100.92c0,14.08-7.35,24.24-19.55,24.24s-19.55-10.17-19.55-24.24v-1.56c0-14.08,7.35-24.24,19.55-24.24s19.55,10.17,19.55,24.24v1.56Z"/>
      <path class="cls-3" d="M859.37,52.43c-28,0-47.7,19.39-47.7,46.14v3.13c0,26.74,19.71,46.14,47.7,46.14s47.7-19.39,47.7-46.14v-3.13c0-26.74-19.71-46.14-47.7-46.14M878.92,100.92c0,14.08-7.35,24.24-19.55,24.24s-19.55-10.17-19.55-24.24v-1.56c0-14.08,7.35-24.24,19.55-24.24s19.55,10.17,19.55,24.24v1.56Z"/>
      <path class="cls-3" d="M932.88,58.06v-.47c0-2.66-2.03-4.54-5.63-4.54h-6.25v14.39h2.97v-4.85h3.3l2.48,4.85h3.29l-3.06-5.69c1.86-.56,2.9-1.95,2.9-3.69M923.96,55.72h3.28c1.88,0,2.66.63,2.66,2.03v.16c0,1.25-.78,2.03-2.66,2.03h-3.28v-4.22Z"/>
      <path class="cls-3" d="M926.62,45.39c-8.45,0-14.86,6.41-14.86,14.86s6.41,14.86,14.86,14.86,14.86-6.41,14.86-14.86-6.41-14.86-14.86-14.86M926.62,73.08c-7.35,0-12.67-5.32-12.67-12.82s5.32-12.82,12.67-12.82,12.67,5.32,12.67,12.82-5.32,12.82-12.67,12.82"/>
      <rect class="cls-3" x="703.75" y="21.15" width="27.37" height="125.12"/>
      <path class="cls-3" d="M785.08,125.16c-7.98,0-10.95-3.91-10.95-12.36v-37.69h32.22v-21.11h-32.22v-21.11l-27.37,4.07v78.51c0,21.43,10.95,32.38,32.84,32.38,9.7,0,21.11-2.97,30.5-8.29l-7.82-19.39c-5.47,2.97-13.14,5-17.2,5"/>
      <path class="cls-3" d="M646.2,52.43c-12.04,0-24.55,3.28-40.04,11.57l8.6,21.27c13.45-7.51,24.55-10.79,32.69-10.79,9.23,0,13.29,3.44,13.29,7.98v.31c0,3.13-2.5,4.85-8.6,5.47l-10.63,1.09c-26.59,2.81-37.54,14.39-37.54,30.34v1.09c0,15.17,12.51,27.06,30.19,27.06,11.63,0,21.75-4.91,27.89-13.58l1.98,12.02h24.09v-54.58c0-25.81-14.86-39.26-41.92-39.26M643.85,127.04c-8.92,0-13.14-3.44-13.14-8.76v-.31c0-4.69,2.66-8.13,12.36-9.54l4.22-.63c6.17-.86,9.97-2,13.45-4.11v6.92c0,10.48-6.57,16.42-16.89,16.42"/>
      <path class="cls-3" d="M550.01,52.43c-28,0-47.7,19.39-47.7,46.14v3.13c0,26.74,19.71,46.14,47.7,46.14s47.7-19.39,47.7-46.14v-3.13c0-26.74-19.71-46.14-47.7-46.14M569.56,100.92c0,14.08-7.35,24.24-19.55,24.24s-19.55-10.17-19.55-24.24v-1.56c0-14.08,7.35-24.24,19.55-24.24s19.55,10.17,19.55,24.24v1.56Z"/>
      <polygon class="cls-3" points="662.04 168.46 669.05 168.46 678.73 181.23 678.83 181.23 678.83 168.46 685.26 168.46 685.26 190.97 678.48 190.97 668.57 177.88 668.47 177.88 668.47 190.97 662.04 190.97 662.04 168.46"/>
      <polygon class="cls-3" points="693.82 168.46 713.5 168.46 713.76 173.93 700.54 173.93 700.54 177.01 710.93 177.01 710.93 182 700.54 182 700.54 185.5 714.14 185.5 713.89 190.97 693.82 190.97 693.82 168.46"/>
      <polygon class="cls-3" points="727.84 174.25 719.96 174.25 720.22 168.46 742.25 168.46 742.51 174.25 734.63 174.25 734.63 190.97 727.84 190.97 727.84 174.25"/>
      <polygon class="cls-3" points="747.95 168.46 755.15 168.46 758.82 184.09 759.17 184.09 763.93 168.46 770.52 168.46 775.19 184.09 775.54 184.09 779.14 168.46 786.03 168.46 780.11 190.97 771.26 190.97 767.15 177.4 766.95 177.4 762.77 190.97 753.9 190.97 747.95 168.46"/>
      <path class="cls-3" d="M790.98,179.72c0-7.33,4.99-11.93,12.86-11.93s12.87,4.6,12.87,11.93-4.99,11.93-12.87,11.93-12.86-4.6-12.86-11.93M809.99,179.72c0-3.89-2.25-6.21-6.14-6.21s-6.14,2.32-6.14,6.21,2.25,6.21,6.11,6.21,6.18-2.32,6.18-6.21"/>
      <path class="cls-3" d="M824.01,168.46h13.12c5.98,0,8.91,2.83,8.91,8.07,0,3.6-1.48,6.05-4.37,7.21l5.34,7.24h-7.65l-4.15-5.92h-4.44v5.92h-6.75v-22.52ZM836.26,179.78c2.25,0,3.06-1.25,3.06-2.96s-.8-2.93-3.06-2.93h-5.5v5.89h5.5Z"/>
      <polygon class="cls-3" points="854.82 168.46 861.57 168.46 861.57 176.76 864.34 176.76 870.93 168.46 878.52 168.46 878.55 168.49 869.94 179.27 879.04 190.94 879 190.97 871.13 190.97 864.31 182.32 861.57 182.32 861.57 190.97 854.82 190.97 854.82 168.46"/>
      <path class="cls-3" d="M884.21,189.49v-6.18h.03c3.76,1.9,7.43,2.83,10.61,2.83,2.41,0,3.63-.58,3.63-1.71s-.8-1.42-5.63-2.19c-5.27-.83-8.78-2.41-8.78-6.95,0-4.21,3.7-7.46,10.94-7.46,2.89,0,5.92.61,8.72,1.8v6.11l-.03.03c-2.67-1.54-6.27-2.51-9.17-2.51-2.57,0-3.6.61-3.6,1.64,0,1.32,1.58,1.45,5.53,2.12,5.27.9,8.78,2.38,8.78,7.14,0,3.7-2.77,7.4-10.71,7.4-3.92,0-7.04-.8-10.32-2.09"/>
    </g>
  </g>
  <g>
    <path class="cls-3" d="M1661.55,66.34h-5.55l.16-3.61h14.89l.13,3.61h-5.55v11.99h-4.08v-11.99Z"/>
    <path class="cls-3" d="M1674.07,62.73h4.75l4.61,8.05,4.5-8.05h4.77v15.61h-4.01v-9.67h-.07l-5.15,8.78h-.27l-5.08-8.78h-.09v9.67h-3.97v-15.61Z"/>
  </g>
  <g>
    <path class="cls-3" d="M1281.13,63.47v73.9h-19.42V63.47h19.42Z"/>
    <path class="cls-3" d="M1349.14,63.47c30.96,0,45.71,14.87,45.71,36.62s-15.42,37.28-45.71,37.28h-36.84V63.47h36.84ZM1331.72,122.05h16.87c17.42,0,26.85-8.21,26.85-21.64s-9.32-21.64-26.85-21.64h-16.87v43.27Z"/>
    <path class="cls-3" d="M1441.13,63.47v73.9h-19.42V63.47h19.42Z"/>
    <path class="cls-3" d="M1491.61,137.37h-19.31V63.47h48.38c20.31,0,31.07,8.99,31.07,24.19,0,11.98-7.88,19.86-19.42,22.97l23.08,26.74h-22.08l-21.41-25.3h-20.31v25.3ZM1491.61,97.75h24.41c10.76,0,16.2-3.22,16.2-9.76s-4.44-9.65-15.31-9.65h-25.3v19.42Z"/>
    <path class="cls-3" d="M1639.73,124.16h-42.39l-6.55,13.2h-20.08l37.61-74.34h21.08l37.73,74.34h-20.86l-6.55-13.2ZM1604.01,110.63h29.07l-14.42-29.4h-.22l-14.43,29.4Z"/>
  </g>
</svg>