<?xml version="1.0" encoding="UTF-8"?>
<svg xmlns="http://www.w3.org/2000/svg" version="1.1" viewBox="0 0 1250.2 469.2">
  <defs>
    <style>
      .cls-1 {
        fill: #ff6333;
      }

      .cls-2 {
        fill: #fff;
      }
    </style>
  </defs>
  <!-- Generator: Adobe Illustrator 28.6.0, SVG Export Plug-In . SVG Version: 1.2.0 Build 709)  -->
  <g>
    <g id="Layer_1">
      <g>
        <g>
          <path class="cls-2" d="M743,222.9h-82.9c3,14.9,14.4,22.9,30.5,22.9s22.7-5,28.9-13.8l17.9,13.5c-9.9,15.6-28.9,24.3-48.3,24.3-31.8,0-56.1-22.9-56.1-56.4s25.4-56.2,56.1-56.2,54.5,21.8,54.5,55.2c-.2,3.2-.4,6.6-.6,10.5h0ZM717.1,204.4c-1.6-14.7-13.1-23.4-27.9-23.4s-25.9,7.1-29.1,23.4h57Z"/>
          <path class="cls-2" d="M867.5,207.1v60h-26.6v-58.2c0-17.2-10.3-26.4-22.2-26.4s-27.2,7.1-27.2,27.7v56.8h-26.6v-107h26.6v17c5.5-13.5,22.2-19.7,33.2-19.7,27.4.2,42.8,18.7,42.8,49.8h0Z"/>
          <path class="cls-2" d="M974.4,160.2h26.6v107h-26.6v-16.7c-7.1,11.7-21.3,19.5-36.6,19.5-28.6,0-51.5-23.2-51.5-56.4s22-56.2,52.2-56.2,28.9,6.4,36,17.7v-14.9h-.1ZM974,213.6c0-18.3-15.1-31.4-30.9-31.4s-30.2,14.2-30.2,31.4,13.1,31.6,30.5,31.6c16.4,0,30.6-13.7,30.6-31.6h0Z"/>
          <path class="cls-2" d="M1138.9,160.2v107h-26.6v-85.9h-45.1v85.9h-26.6v-85.9h-20.4v-21.1h20.4v-1.7c0-30.7,14.7-49.3,44.4-49.3h6.9v24.8h-3.9c-16.3,0-21.1,9.4-20.8,21.3v4.9h71.7ZM1108.2,125.6c0-9.4,8-16.3,17.4-16.3s17.2,6.9,17.2,16.3-7.8,16.3-17.2,16.3-17.4-7.1-17.4-16.3Z"/>
          <path class="cls-2" d="M612.4,116.7c-10.9,38.2-28.4,73.8-51.1,105.6-22.7-31.8-40.2-67.4-51.1-105.6h-29.2c12.4,46.9,33.9,90.4,62.5,128.5,5.7,7.5,11.6,14.8,17.8,21.9,6.2-7.1,12.1-14.4,17.8-21.9,28.6-38.1,50.1-81.6,62.5-128.5h-29.2Z"/>
        </g>
        <g>
          <path class="cls-2" d="M542,348.1l14.9-40.6h7.8l14.8,40.6h-7.4l-11.4-32.5-11.4,32.5h-7.3ZM548.7,338.5l1.9-5.5h20l1.9,5.5h-23.8Z"/>
          <path class="cls-2" d="M617.2,348.8c-4,0-7.5-.9-10.4-2.6s-5.2-4.2-6.7-7.4-2.3-6.8-2.3-10.9.8-7.8,2.3-11c1.5-3.1,3.8-5.6,6.7-7.4s6.4-2.7,10.4-2.7,8.8,1.2,11.8,3.6c3,2.4,5,5.7,5.8,10.1h-7.7c-.5-2.3-1.6-4.1-3.3-5.4-1.7-1.3-3.9-2-6.7-2s-4.8.6-6.6,1.8c-1.8,1.2-3.2,2.9-4.2,5.1s-1.5,4.9-1.5,7.9.5,5.7,1.5,7.9c1,2.2,2.4,3.9,4.2,5,1.8,1.2,4,1.8,6.6,1.8s5-.6,6.7-1.8c1.7-1.2,2.8-2.9,3.3-5.1h7.7c-.8,4.1-2.7,7.3-5.8,9.6-3,2.3-6.9,3.5-11.8,3.5h0Z"/>
          <path class="cls-2" d="M645,360.9l7.1-16h-1.7l-11.7-26h7.6l8.6,19.9,8.2-19.9h7.4l-18.2,42h-7.3Z"/>
          <path class="cls-2" d="M692.4,348.8c-1.6,0-3-.2-4.2-.6s-2.3-1-3.2-1.7c-1-.7-1.8-1.5-2.4-2.4l-.6,4.1h-6.2v-41.7h7v16.8c.9-1.4,2.2-2.6,3.8-3.5,1.6-1,3.5-1.5,5.9-1.5s5.2.7,7.3,2,3.8,3.1,5,5.5c1.2,2.3,1.8,4.9,1.8,7.9s-.6,5.6-1.8,7.9-2.8,4.1-5,5.5c-2.3,1-4.7,1.7-7.4,1.7h0ZM690.9,342.8c1.6,0,3-.4,4.3-1.2s2.2-1.9,3-3.2c.7-1.4,1.1-3,1.1-4.9s-.4-3.4-1.1-4.8-1.7-2.5-3-3.3c-1.2-.8-2.7-1.2-4.3-1.2s-3.2.4-4.4,1.2c-1.3.8-2.2,1.9-2.9,3.3s-1,3-1,4.8.3,3.4,1,4.8,1.7,2.5,2.9,3.3c1.2.8,2.7,1.2,4.4,1.2h0Z"/>
          <path class="cls-2" d="M726.8,348.8c-2.9,0-5.5-.6-7.7-1.9s-3.9-3-5.2-5.3-1.9-4.9-1.9-7.9.6-5.7,1.8-8.1c1.2-2.3,2.9-4.1,5.2-5.5s4.8-2,7.7-2,5.3.6,7.5,1.9c2.1,1.3,3.8,3,4.9,5.1,1.2,2.1,1.8,4.5,1.8,7.2v1.2c0,.5,0,.9,0,1.5h-23.8v-4.5h17c0-2.1-.8-3.8-2.1-5s-3-1.9-5-1.9-2.8.3-3.9,1c-1.2.7-2.2,1.6-2.8,2.9s-1,2.9-1,4.9v1.7c0,1.8.3,3.4,1,4.7.7,1.3,1.6,2.3,2.8,3s2.5,1,4,1,3-.4,4-1c1.1-.7,1.8-1.6,2.3-2.7h7.1c-.5,1.8-1.3,3.4-2.6,4.8-1.3,1.5-2.8,2.6-4.6,3.4-2.1,1.1-4.2,1.5-6.4,1.5h0Z"/>
          <path class="cls-2" d="M747.5,348.1v-29.2h6.2l.6,5.5c.7-1.3,1.6-2.4,2.6-3.3s2.2-1.6,3.7-2.1c1.4-.5,3-.8,4.8-.8v7.3h-2.5c-1.2,0-2.3.1-3.3.4s-1.9.8-2.7,1.4-1.3,1.5-1.7,2.7-.6,2.5-.6,4.1v14h-7.1Z"/>
          <path class="cls-2" d="M767.9,348.1l14.9-40.6h7.8l14.8,40.6h-7.4l-11.4-32.5-11.4,32.5h-7.3ZM774.6,338.5l1.8-5.5h20l1.9,5.5h-23.7Z"/>
          <path class="cls-2" d="M810.8,348.1v-29.2h6.2l.6,5.5c.7-1.3,1.6-2.4,2.6-3.3s2.2-1.6,3.7-2.1c1.4-.5,3-.8,4.8-.8v7.3h-2.5c-1.2,0-2.3.1-3.3.4s-1.9.8-2.7,1.4-1.3,1.5-1.7,2.7-.6,2.5-.6,4.1v14h-7.1Z"/>
          <path class="cls-2" d="M833.8,348.1v-41.7h7v41.7h-7ZM852.6,348.1l-12.9-16,11.5-13.2h8.3l-14.4,16.1v-5.4c0,0,16.2,18.5,16.2,18.5h-8.7Z"/>
          <path class="cls-2" d="M896.1,348.8c-4,0-7.5-.9-10.4-2.6s-5.2-4.2-6.7-7.4-2.3-6.8-2.3-10.9.8-7.8,2.3-11c1.5-3.1,3.8-5.6,6.7-7.4s6.4-2.7,10.4-2.7,8.8,1.2,11.8,3.6c3,2.4,5,5.7,5.8,10.1h-7.7c-.5-2.3-1.6-4.1-3.3-5.4-1.7-1.3-3.9-2-6.7-2s-4.8.6-6.6,1.8c-1.8,1.2-3.2,2.9-4.2,5.1s-1.5,4.9-1.5,7.9.5,5.7,1.5,7.9c1,2.2,2.4,3.9,4.2,5,1.8,1.2,4,1.8,6.6,1.8s5-.6,6.7-1.8c1.7-1.2,2.8-2.9,3.3-5.1h7.7c-.8,4.1-2.7,7.3-5.8,9.6-3,2.3-7,3.5-11.8,3.5h0Z"/>
          <path class="cls-2" d="M933.9,348.8c-2.8,0-5.3-.6-7.5-1.9s-4-3.1-5.2-5.4c-1.3-2.3-1.9-5-1.9-7.9s.6-5.7,1.9-8.1,3-4.1,5.2-5.4,4.7-1.9,7.5-1.9,5.3.6,7.5,1.9,4,3.1,5.2,5.4c1.3,2.3,1.9,5,1.9,8s-.7,5.7-2,8-3.1,4.1-5.3,5.4-4.5,1.9-7.3,1.9h0ZM933.9,342.8c1.4,0,2.7-.4,3.8-1.1s2.1-1.8,2.8-3.2,1-3.1,1-5.1-.3-3.8-1-5.2c-.7-1.4-1.6-2.4-2.7-3.1-1.1-.7-2.4-1-3.7-1s-2.7.4-3.8,1c-1.2.7-2.1,1.7-2.8,3.1s-1,3.1-1,5.2.3,3.7,1,5.1,1.6,2.4,2.8,3.2,2.2,1.1,3.6,1.1h0Z"/>
          <path class="cls-2" d="M955.4,348.1v-29.2h6.2l.5,3.9c.9-1.4,2.2-2.6,3.7-3.4,1.6-.8,3.3-1.2,5.2-1.2s2.8.2,4,.6,2.2,1,3.1,1.7c.9.8,1.7,1.7,2.2,2.9,1-1.6,2.4-2.9,4.2-3.8,1.7-.9,3.7-1.4,5.7-1.4s4.5.5,6.2,1.5,3,2.4,3.9,4.4c.9,1.9,1.3,4.3,1.3,7v17h-6.9v-16.4c0-2.5-.5-4.4-1.5-5.7s-2.5-2-4.4-2-2.5.3-3.5,1-1.8,1.6-2.4,2.9c-.6,1.3-.9,2.8-.9,4.6v15.5h-7v-16.4c0-2.5-.5-4.4-1.5-5.7s-2.5-2-4.6-2-2.4.3-3.4,1-1.8,1.6-2.3,2.9c-.6,1.3-.8,2.8-.8,4.6v15.5l-7,.2h0Z"/>
          <path class="cls-2" d="M1009.1,360.9v-42h6.2l.6,4.2c.7-.9,1.4-1.7,2.3-2.4.9-.7,1.9-1.3,3.1-1.8,1.2-.5,2.7-.7,4.4-.7,2.8,0,5.2.7,7.3,2s3.7,3.1,4.9,5.5c1.2,2.3,1.8,4.9,1.8,7.9s-.6,5.6-1.8,7.9-2.9,4.1-5,5.4-4.5,2-7.2,2-4.2-.4-5.8-1.2c-1.6-.8-2.9-2-3.9-3.6v16.9h-6.9ZM1024.3,342.8c1.6,0,3.1-.4,4.3-1.2,1.2-.8,2.2-1.9,3-3.2s1.1-3,1.1-4.8-.4-3.4-1.1-4.8-1.7-2.5-3-3.3-2.7-1.2-4.3-1.2-3.2.4-4.4,1.2-2.2,1.9-2.9,3.3-1,3-1,4.9.3,3.4,1,4.8,1.7,2.5,2.9,3.3c1.2.6,2.7,1,4.4,1h0Z"/>
          <path class="cls-2" d="M1056.2,348.8c-2.4,0-4.3-.4-5.9-1.2s-2.8-1.9-3.6-3.2c-.8-1.4-1.2-2.8-1.2-4.5s.5-3.4,1.4-4.8,2.3-2.4,4.2-3.2c1.9-.8,4.2-1.1,6.9-1.1h7.4c0-1.5-.2-2.8-.7-3.9-.5-1-1.1-1.8-2-2.3s-2-.8-3.5-.8-2.9.4-4.1,1.1-1.8,1.8-2.1,3.3h-6.8c.2-2.1.9-3.9,2.1-5.4s2.7-2.7,4.6-3.5c1.9-.8,4-1.2,6.2-1.2s5.2.5,7.1,1.4c2,1,3.4,2.3,4.5,4s1.5,3.9,1.5,6.4v18.1h-6l-.7-4.6c-.4.8-.9,1.5-1.5,2.1s-1.3,1.2-2.1,1.7-1.7.9-2.6,1.1c-.8.3-1.9.5-3.1.5h0ZM1057.8,343.3c1.1,0,2.1-.2,3-.6s1.6-1,2.3-1.7,1.1-1.6,1.5-2.5c.4-1,.6-1.9.7-3h0c0-.1-6.4-.1-6.4-.1-1.4,0-2.5.2-3.4.5-.9.4-1.5.8-1.9,1.4s-.6,1.3-.6,2.1.2,1.6.6,2.1c.4.6,1,1,1.7,1.3s1.5.5,2.5.5h0Z"/>
          <path class="cls-2" d="M1079.8,348.1v-29.2h6.2l.5,4.9c.9-1.7,2.2-3,3.8-4.1,1.7-1,3.6-1.5,5.9-1.5s4.4.5,6,1.5c1.7,1,2.9,2.4,3.8,4.3s1.3,4.2,1.3,7.1v17h-6.9v-16.4c0-2.5-.5-4.4-1.6-5.7s-2.7-2-4.8-2-2.6.3-3.7,1c-1.1.7-1.9,1.6-2.6,2.9s-1,2.8-1,4.6v15.6h-6.9Z"/>
          <path class="cls-2" d="M1117.4,360.9l7.1-16h-1.7l-11.7-26h7.6l8.6,19.9,8.2-19.9h7.4l-18.2,42h-7.3Z"/>
        </g>
        <g>
          <path class="cls-2" d="M743,222.9h-82.9c3,14.9,14.4,22.9,30.5,22.9s22.7-5,28.9-13.8l17.9,13.5c-9.9,15.6-28.9,24.3-48.3,24.3-31.8,0-56.1-22.9-56.1-56.4s25.4-56.2,56.1-56.2,54.5,21.8,54.5,55.2c-.2,3.2-.4,6.6-.6,10.5h0ZM717.1,204.4c-1.6-14.7-13.1-23.4-27.9-23.4s-25.9,7.1-29.1,23.4h57Z"/>
          <path class="cls-2" d="M867.5,207.1v60h-26.6v-58.2c0-17.2-10.3-26.4-22.2-26.4s-27.2,7.1-27.2,27.7v56.8h-26.6v-107h26.6v17c5.5-13.5,22.2-19.7,33.2-19.7,27.4.2,42.8,18.7,42.8,49.8h0Z"/>
          <path class="cls-2" d="M974.4,160.2h26.6v107h-26.6v-16.7c-7.1,11.7-21.3,19.5-36.6,19.5-28.6,0-51.5-23.2-51.5-56.4s22-56.2,52.2-56.2,28.9,6.4,36,17.7v-14.9h-.1ZM974,213.6c0-18.3-15.1-31.4-30.9-31.4s-30.2,14.2-30.2,31.4,13.1,31.6,30.5,31.6c16.4,0,30.6-13.7,30.6-31.6h0Z"/>
          <path class="cls-2" d="M1138.9,160.2v107h-26.6v-85.9h-45.1v85.9h-26.6v-85.9h-20.4v-21.1h20.4v-1.7c0-30.7,14.7-49.3,44.4-49.3h6.9v24.8h-3.9c-16.3,0-21.1,9.4-20.8,21.3v4.9h71.7ZM1108.2,125.6c0-9.4,8-16.3,17.4-16.3s17.2,6.9,17.2,16.3-7.8,16.3-17.2,16.3-17.4-7.1-17.4-16.3Z"/>
          <path class="cls-2" d="M612.4,116.7c-10.9,38.2-28.4,73.8-51.1,105.6-22.7-31.8-40.2-67.4-51.1-105.6h-29.2c12.4,46.9,33.9,90.4,62.5,128.5,5.7,7.5,11.6,14.8,17.8,21.9,6.2-7.1,12.1-14.4,17.8-21.9,28.6-38.1,50.1-81.6,62.5-128.5h-29.2Z"/>
        </g>
        <g>
          <path class="cls-1" d="M320.8,105.4c-.7,1.9-7.9,23-11.8,31.7h61.1c-21.7,58.9-52.8,112.7-92.6,159.9l-13.6,16.1-13.6-16.1c-39.8-47.2-70.9-101.1-92.6-159.9h58c-3.9-8.7-11.1-29.8-11.8-31.7h-96.5c32,86.5,77.6,165.6,136.1,234.9l20,23.6,20-23.6c58.5-69.3,104.1-148.4,136.1-234.9h-98.8Z"/>
          <path class="cls-1" d="M304.8,157.8c-10.6,26.2-24.3,50.8-41.4,72.9-17-22.1-30.8-46.7-41.4-72.9h-32c15,40.7,36.6,77.9,64,110.5l9.4,11.2,9.4-11.2c27.5-32.7,49-69.8,64-110.5h-32Z"/>
        </g>
      </g>
    </g>
  </g>
</svg>